<svg width="156" height="120" viewBox="0 0 156 120" fill="none" xmlns="http://www.w3.org/2000/svg">
<path d="M11.0696 35.795V10.235L12.7346 15.23L5.71455 18.335L4.40955 10.37L13.6346 6.05H19.7096V35.795H11.0696ZM4.94955 38V30.305H25.9646V38H4.94955ZM30.1436 38L28.6136 34.31L37.6136 24.635C38.1536 24.065 38.7236 23.42 39.3236 22.7C39.9536 21.95 40.5536 21.2 41.1236 20.45C41.7236 19.67 42.2036 18.92 42.5636 18.2C42.9236 17.45 43.1036 16.805 43.1036 16.265C43.1036 15.845 42.9986 15.47 42.7886 15.14C42.5786 14.78 42.2486 14.495 41.7986 14.285C41.3786 14.045 40.8236 13.925 40.1336 13.925C39.5336 13.925 38.9636 14.075 38.4236 14.375C37.8836 14.645 37.3586 15.095 36.8486 15.725C36.3686 16.325 35.8736 17.12 35.3636 18.11L28.8386 14.69C29.4986 12.95 30.4436 11.405 31.6736 10.055C32.9036 8.675 34.3136 7.595 35.9036 6.815C37.5236 6.035 39.2186 5.66 40.9886 5.69C42.8786 5.72 44.6036 6.125 46.1636 6.905C47.7236 7.685 48.9686 8.78 49.8986 10.19C50.8286 11.57 51.2936 13.19 51.2936 15.05C51.2936 15.65 51.2186 16.295 51.0686 16.985C50.9486 17.645 50.7386 18.335 50.4386 19.055C50.1386 19.775 49.7486 20.555 49.2686 21.395C48.7886 22.205 48.2036 23.075 47.5136 24.005C46.8236 24.905 46.0136 25.865 45.0836 26.885L37.9286 34.67L37.0286 30.305H52.8686V38H30.1436ZM74.2225 38.27C72.9025 38.27 71.7125 37.92 70.6525 37.22C69.6125 36.5 68.7825 35.52 68.1625 34.28C67.5625 33.02 67.2625 31.59 67.2625 29.99C67.2625 28.35 67.5625 26.91 68.1625 25.67C68.7625 24.43 69.5925 23.46 70.6525 22.76C71.7125 22.04 72.9325 21.68 74.3125 21.68C75.0525 21.68 75.7325 21.78 76.3525 21.98C76.9725 22.18 77.5125 22.47 77.9725 22.85C78.4325 23.23 78.8325 23.66 79.1725 24.14C79.5125 24.62 79.7925 25.14 80.0125 25.7L78.8725 25.64V22.01H84.3625V38H78.7525V34.1L79.9825 34.16C79.8025 34.74 79.5325 35.28 79.1725 35.78C78.8325 36.28 78.4125 36.72 77.9125 37.1C77.4125 37.46 76.8525 37.75 76.2325 37.97C75.6325 38.17 74.9625 38.27 74.2225 38.27ZM75.8125 33.68C76.4525 33.68 77.0025 33.54 77.4625 33.26C77.9225 32.96 78.2725 32.53 78.5125 31.97C78.7725 31.41 78.9025 30.75 78.9025 29.99C78.9025 29.21 78.7725 28.54 78.5125 27.98C78.2725 27.42 77.9225 27 77.4625 26.72C77.0025 26.42 76.4525 26.27 75.8125 26.27C75.1725 26.27 74.6225 26.42 74.1625 26.72C73.7225 27 73.3825 27.42 73.1425 27.98C72.9025 28.54 72.7825 29.21 72.7825 29.99C72.7825 30.75 72.9025 31.41 73.1425 31.97C73.3825 32.53 73.7225 32.96 74.1625 33.26C74.6225 33.54 75.1725 33.68 75.8125 33.68ZM109.38 35.795V10.235L111.045 15.23L104.025 18.335L102.72 10.37L111.945 6.05H118.02V35.795H109.38ZM103.26 38V30.305H124.275V38H103.26ZM140.109 38.45C137.439 38.45 135.084 37.91 133.044 36.83C131.004 35.75 129.174 33.845 127.554 31.115L133.854 27.065C134.454 28.085 135.099 28.895 135.789 29.495C136.479 30.095 137.199 30.53 137.949 30.8C138.729 31.04 139.524 31.16 140.334 31.16C141.084 31.16 141.774 31.01 142.404 30.71C143.034 30.41 143.529 29.975 143.889 29.405C144.279 28.835 144.474 28.16 144.474 27.38C144.474 26.57 144.294 25.895 143.934 25.355C143.574 24.785 143.064 24.365 142.404 24.095C141.744 23.795 140.949 23.645 140.019 23.645C139.599 23.645 139.134 23.69 138.624 23.78C138.144 23.87 137.634 24.005 137.094 24.185C136.584 24.365 136.059 24.59 135.519 24.86L133.674 20.045L140.379 12.8L142.989 13.79L129.984 13.43V6.14H149.964L151.539 9.335L141.054 20.36L138.984 17.795C139.224 17.675 139.614 17.57 140.154 17.48C140.724 17.36 141.309 17.3 141.909 17.3C143.319 17.3 144.669 17.57 145.959 18.11C147.249 18.62 148.389 19.34 149.379 20.27C150.369 21.17 151.149 22.235 151.719 23.465C152.289 24.665 152.574 25.985 152.574 27.425C152.574 29.525 152.019 31.415 150.909 33.095C149.799 34.745 148.299 36.05 146.409 37.01C144.549 37.97 142.449 38.45 140.109 38.45Z" fill="#132D52"/>
<path d="M8.29455 70V53.9H11.7905L20.2315 65.4L19.4725 65.285C19.3959 64.779 19.3345 64.296 19.2885 63.836C19.2425 63.376 19.1965 62.9237 19.1505 62.479C19.1199 62.0343 19.0892 61.582 19.0585 61.122C19.0432 60.662 19.0279 60.1637 19.0125 59.627C19.0125 59.0903 19.0125 58.5077 19.0125 57.879V53.9H22.8075V70H19.2655L10.4565 58.132L11.6295 58.293C11.7062 59.029 11.7675 59.6577 11.8135 60.179C11.8749 60.685 11.9209 61.1373 11.9515 61.536C11.9975 61.9347 12.0282 62.295 12.0435 62.617C12.0589 62.939 12.0665 63.261 12.0665 63.583C12.0819 63.8897 12.0895 64.2347 12.0895 64.618V70H8.29455ZM34.8743 70.23C33.6476 70.23 32.5283 70.023 31.5163 69.609C30.5043 69.195 29.6226 68.6123 28.8713 67.861C28.1199 67.1097 27.5373 66.228 27.1233 65.216C26.7093 64.204 26.5023 63.0923 26.5023 61.881C26.5023 60.6697 26.7093 59.558 27.1233 58.546C27.5373 57.534 28.1199 56.6523 28.8713 55.901C29.6226 55.1497 30.5043 54.567 31.5163 54.153C32.5283 53.739 33.6399 53.532 34.8513 53.532C36.0626 53.532 37.1743 53.739 38.1863 54.153C39.1983 54.567 40.0799 55.1497 40.8313 55.901C41.5826 56.6523 42.1576 57.534 42.5563 58.546C42.9703 59.558 43.1773 60.6697 43.1773 61.881C43.1773 63.077 42.9703 64.1887 42.5563 65.216C42.1576 66.228 41.5826 67.1097 40.8313 67.861C40.0799 68.6123 39.1983 69.195 38.1863 69.609C37.1743 70.023 36.0703 70.23 34.8743 70.23ZM34.8513 66.55C35.4799 66.55 36.0549 66.435 36.5763 66.205C37.1129 65.975 37.5729 65.653 37.9563 65.239C38.3549 64.8097 38.6616 64.3113 38.8763 63.744C39.0909 63.1767 39.1983 62.5557 39.1983 61.881C39.1983 61.2063 39.0909 60.5853 38.8763 60.018C38.6616 59.4507 38.3549 58.96 37.9563 58.546C37.5729 58.1167 37.1129 57.787 36.5763 57.557C36.0549 57.327 35.4799 57.212 34.8513 57.212C34.2226 57.212 33.6399 57.327 33.1033 57.557C32.5819 57.787 32.1219 58.1167 31.7233 58.546C31.3246 58.96 31.0179 59.4507 30.8033 60.018C30.6039 60.5853 30.5043 61.2063 30.5043 61.881C30.5043 62.5557 30.6039 63.1843 30.8033 63.767C31.0179 64.3343 31.3246 64.825 31.7233 65.239C32.1219 65.653 32.5819 65.975 33.1033 66.205C33.6399 66.435 34.2226 66.55 34.8513 66.55ZM50.704 70L44.264 53.9H48.335L51.44 62.111C51.624 62.5863 51.7774 63.0003 51.9 63.353C52.038 63.7057 52.153 64.0353 52.245 64.342C52.3524 64.6487 52.4444 64.963 52.521 65.285C52.613 65.5917 52.7127 65.9443 52.82 66.343H52.107C52.2297 65.8217 52.3524 65.3617 52.475 64.963C52.5977 64.549 52.7357 64.1273 52.889 63.698C53.0424 63.2533 53.234 62.7243 53.464 62.111L56.454 53.9H60.456L53.97 70H50.704ZM63.2601 70V53.9H74.4841V57.235H67.0551V66.665H74.7141V70H63.2601ZM65.1001 63.399V60.225H73.4491V63.399H65.1001ZM78.7743 70V53.9H82.2703L88.1353 63.445L85.6283 63.422L91.5623 53.9H94.9203V70H91.1253V64.986C91.1253 63.606 91.1559 62.364 91.2173 61.26C91.2939 60.156 91.4166 59.0597 91.5853 57.971L92.0223 59.167L87.5603 66.09H86.0423L81.6723 59.213L82.1093 57.971C82.2779 58.9983 82.3929 60.0563 82.4543 61.145C82.5309 62.2183 82.5693 63.4987 82.5693 64.986V70H78.7743ZM99.6567 70V53.9H106.764C107.868 53.9 108.803 54.061 109.57 54.383C110.336 54.6897 110.911 55.142 111.295 55.74C111.693 56.3227 111.893 57.028 111.893 57.856C111.893 58.776 111.663 59.5503 111.203 60.179C110.758 60.8077 110.106 61.2293 109.248 61.444L109.202 61.007C109.922 61.1603 110.543 61.4287 111.065 61.812C111.601 62.1953 112.015 62.6707 112.307 63.238C112.598 63.79 112.744 64.4187 112.744 65.124C112.744 65.9367 112.606 66.6497 112.33 67.263C112.054 67.861 111.655 68.367 111.134 68.781C110.612 69.195 109.999 69.5017 109.294 69.701C108.604 69.9003 107.837 70 106.994 70H99.6567ZM103.337 66.734H106.856C107.285 66.734 107.645 66.665 107.937 66.527C108.243 66.389 108.481 66.1897 108.65 65.929C108.818 65.653 108.903 65.3233 108.903 64.94C108.903 64.5873 108.811 64.2883 108.627 64.043C108.458 63.7977 108.213 63.6137 107.891 63.491C107.569 63.353 107.185 63.284 106.741 63.284H103.337V66.734ZM103.337 60.363H106.212C106.61 60.363 106.948 60.3017 107.224 60.179C107.515 60.041 107.73 59.857 107.868 59.627C108.021 59.3817 108.098 59.0903 108.098 58.753C108.098 58.2623 107.929 57.879 107.592 57.603C107.254 57.3117 106.748 57.166 106.074 57.166H103.337V60.363ZM116.474 70V53.9H123.719C124.746 53.9 125.674 54.1223 126.502 54.567C127.345 55.0117 128.004 55.625 128.48 56.407C128.955 57.1737 129.193 58.0477 129.193 59.029C129.193 60.041 128.955 60.9533 128.48 61.766C128.004 62.5633 127.353 63.192 126.525 63.652C125.697 64.112 124.761 64.342 123.719 64.342H120.2V70H116.474ZM125.398 70L121.304 62.732L125.306 62.157L129.86 70H125.398ZM120.2 61.352H123.374C123.772 61.352 124.117 61.2677 124.409 61.099C124.715 60.915 124.945 60.662 125.099 60.34C125.267 60.018 125.352 59.65 125.352 59.236C125.352 58.822 125.26 58.4617 125.076 58.155C124.892 57.833 124.623 57.5877 124.271 57.419C123.933 57.2503 123.519 57.166 123.029 57.166H120.2V61.352ZM140.425 70.23C139.199 70.23 138.079 70.023 137.067 69.609C136.055 69.195 135.174 68.6123 134.422 67.861C133.671 67.1097 133.088 66.228 132.674 65.216C132.26 64.204 132.053 63.0923 132.053 61.881C132.053 60.6697 132.26 59.558 132.674 58.546C133.088 57.534 133.671 56.6523 134.422 55.901C135.174 55.1497 136.055 54.567 137.067 54.153C138.079 53.739 139.191 53.532 140.402 53.532C141.614 53.532 142.725 53.739 143.737 54.153C144.749 54.567 145.631 55.1497 146.382 55.901C147.134 56.6523 147.709 57.534 148.107 58.546C148.521 59.558 148.728 60.6697 148.728 61.881C148.728 63.077 148.521 64.1887 148.107 65.216C147.709 66.228 147.134 67.1097 146.382 67.861C145.631 68.6123 144.749 69.195 143.737 69.609C142.725 70.023 141.621 70.23 140.425 70.23ZM140.402 66.55C141.031 66.55 141.606 66.435 142.127 66.205C142.664 65.975 143.124 65.653 143.507 65.239C143.906 64.8097 144.213 64.3113 144.427 63.744C144.642 63.1767 144.749 62.5557 144.749 61.881C144.749 61.2063 144.642 60.5853 144.427 60.018C144.213 59.4507 143.906 58.96 143.507 58.546C143.124 58.1167 142.664 57.787 142.127 57.557C141.606 57.327 141.031 57.212 140.402 57.212C139.774 57.212 139.191 57.327 138.654 57.557C138.133 57.787 137.673 58.1167 137.274 58.546C136.876 58.96 136.569 59.4507 136.354 60.018C136.155 60.5853 136.055 61.2063 136.055 61.881C136.055 62.5557 136.155 63.1843 136.354 63.767C136.569 64.3343 136.876 64.825 137.274 65.239C137.673 65.653 138.133 65.975 138.654 66.205C139.191 66.435 139.774 66.55 140.402 66.55Z" fill="white"/>
<path d="M7.386 111L6.231 108.13L13.371 100.325C13.7677 99.8817 14.1993 99.38 14.666 98.82C15.1327 98.26 15.5877 97.6883 16.031 97.105C16.4743 96.4983 16.8243 95.915 17.081 95.355C17.361 94.795 17.501 94.2817 17.501 93.815C17.501 93.3483 17.396 92.94 17.186 92.59C16.976 92.24 16.6727 91.9717 16.276 91.785C15.8793 91.575 15.3777 91.47 14.771 91.47C14.2343 91.47 13.721 91.61 13.231 91.89C12.741 92.1467 12.2743 92.555 11.831 93.115C11.411 93.675 11.0143 94.3633 10.641 95.18L6.231 92.8C6.721 91.4467 7.40933 90.2567 8.296 89.23C9.206 88.18 10.2677 87.375 11.481 86.815C12.6943 86.2317 13.9893 85.94 15.366 85.94C16.8127 85.9633 18.1193 86.2783 19.286 86.885C20.4527 87.4683 21.3743 88.2967 22.051 89.37C22.751 90.42 23.101 91.6567 23.101 93.08C23.101 93.57 23.0427 94.0833 22.926 94.62C22.8093 95.1567 22.6343 95.7167 22.401 96.3C22.1677 96.86 21.8527 97.4667 21.456 98.12C21.0827 98.75 20.6277 99.415 20.091 100.115C19.5543 100.815 18.9243 101.562 18.201 102.355L12.636 108.41L11.936 105.75H24.186V111H7.386ZM56.5908 111.35C54.3975 111.35 52.5191 110.848 50.9558 109.845C49.4158 108.842 48.2375 107.407 47.4208 105.54C46.6041 103.65 46.1958 101.387 46.1958 98.75C46.1958 96.1133 46.6041 93.8617 47.4208 91.995C48.2375 90.105 49.4158 88.6583 50.9558 87.655C52.5191 86.6517 54.3975 86.15 56.5908 86.15C58.7841 86.15 60.6625 86.6517 62.2258 87.655C63.7891 88.6583 64.9791 90.105 65.7958 91.995C66.6125 93.8617 67.0208 96.1133 67.0208 98.75C67.0208 101.387 66.6125 103.65 65.7958 105.54C64.9791 107.407 63.7891 108.842 62.2258 109.845C60.6625 110.848 58.7841 111.35 56.5908 111.35ZM56.5908 106.31C58.1075 106.31 59.2741 105.657 60.0908 104.35C60.9308 103.043 61.3508 101.177 61.3508 98.75C61.3508 96.2533 60.9308 94.34 60.0908 93.01C59.2741 91.6567 58.1075 90.98 56.5908 90.98C55.0741 90.98 53.8958 91.6567 53.0558 93.01C52.2391 94.34 51.8308 96.2533 51.8308 98.75C51.8308 101.177 52.2391 103.043 53.0558 104.35C53.8958 105.657 55.0741 106.31 56.5908 106.31ZM90.779 111L89.624 108.13L96.764 100.325C97.1606 99.8817 97.5923 99.38 98.059 98.82C98.5256 98.26 98.9806 97.6883 99.424 97.105C99.8673 96.4983 100.217 95.915 100.474 95.355C100.754 94.795 100.894 94.2817 100.894 93.815C100.894 93.3483 100.789 92.94 100.579 92.59C100.369 92.24 100.066 91.9717 99.669 91.785C99.2723 91.575 98.7706 91.47 98.164 91.47C97.6273 91.47 97.114 91.61 96.624 91.89C96.134 92.1467 95.6673 92.555 95.224 93.115C94.804 93.675 94.4073 94.3633 94.034 95.18L89.624 92.8C90.114 91.4467 90.8023 90.2567 91.689 89.23C92.599 88.18 93.6606 87.375 94.874 86.815C96.0873 86.2317 97.3823 85.94 98.759 85.94C100.206 85.9633 101.512 86.2783 102.679 86.885C103.846 87.4683 104.767 88.2967 105.444 89.37C106.144 90.42 106.494 91.6567 106.494 93.08C106.494 93.57 106.436 94.0833 106.319 94.62C106.202 95.1567 106.027 95.7167 105.794 96.3C105.561 96.86 105.246 97.4667 104.849 98.12C104.476 98.75 104.021 99.415 103.484 100.115C102.947 100.815 102.317 101.562 101.594 102.355L96.029 108.41L95.329 105.75H107.579V111H90.779ZM139.72 111V91.19L142.905 91.26L134.05 102.11L133.21 101.06H149.45V105.96H130.55L128.17 101.375L140.665 86.29H145.46V111H139.72Z" fill="#132D52"/>
</svg>
