<svg width="180" height="99" viewBox="0 0 180 99" fill="none" xmlns="http://www.w3.org/2000/svg">
<path d="M34.832 96.6368C29.913 89.2316 29 88.4715 29 85.75C29 82.0221 31.9101 79 35.5 79C39.0899 79 42 82.0221 42 85.75C42 88.4715 41.087 89.2316 36.168 96.6368C35.8452 97.1211 35.1548 97.121 34.832 96.6368ZM35.5 88.5625C36.9958 88.5625 38.2083 87.3033 38.2083 85.75C38.2083 84.1967 36.9958 82.9375 35.5 82.9375C34.0042 82.9375 32.7917 84.1967 32.7917 85.75C32.7917 87.3033 34.0042 88.5625 35.5 88.5625Z" fill="#132D52"/>
<path d="M30.3775 38L28.6775 33.9L38.6775 23.15C39.2775 22.5167 39.9109 21.8 40.5775 21C41.2775 20.1667 41.9442 19.3333 42.5775 18.5C43.2442 17.6333 43.7775 16.8 44.1775 16C44.5775 15.1667 44.7775 14.45 44.7775 13.85C44.7775 13.3833 44.6609 12.9667 44.4275 12.6C44.1942 12.2 43.8275 11.8833 43.3275 11.65C42.8609 11.3833 42.2442 11.25 41.4775 11.25C40.8109 11.25 40.1775 11.4167 39.5775 11.75C38.9775 12.05 38.3942 12.55 37.8275 13.25C37.2942 13.9167 36.7442 14.8 36.1775 15.9L28.9275 12.1C29.6609 10.1667 30.7109 8.45 32.0775 6.95C33.4442 5.41666 35.0109 4.21666 36.7775 3.35C38.5775 2.48333 40.4609 2.06666 42.4275 2.1C44.5275 2.13333 46.4442 2.58333 48.1775 3.45C49.9109 4.31667 51.2942 5.53333 52.3275 7.1C53.3609 8.63333 53.8775 10.4333 53.8775 12.5C53.8775 13.1667 53.7942 13.8833 53.6275 14.65C53.4942 15.3833 53.2609 16.15 52.9275 16.95C52.5942 17.75 52.1609 18.6167 51.6275 19.55C51.0942 20.45 50.4442 21.4167 49.6775 22.45C48.9109 23.45 48.0109 24.5167 46.9775 25.65L39.0275 34.3L38.0275 29.45H55.6275V38H30.3775ZM61.0201 38L60.8201 37.5L72.0701 15.4L74.0701 17.9C73.8701 19.1667 73.3868 20.3333 72.6201 21.4C71.8868 22.4667 70.9701 23.4 69.8701 24.2C68.8034 24.9667 67.6701 25.5833 66.4701 26.05C65.2701 26.4833 64.1534 26.7 63.1201 26.7C61.2201 26.7 59.4701 26.1667 57.8701 25.1C56.2701 24 54.9868 22.5833 54.0201 20.85C53.0534 19.0833 52.5701 17.1833 52.5701 15.15C52.5701 12.6833 53.1534 10.4667 54.3201 8.5C55.5201 6.53333 57.1201 4.96666 59.1201 3.8C61.1534 2.63333 63.4534 2.05 66.0201 2.05C67.8534 2.05 69.5701 2.38333 71.1701 3.05C72.8034 3.68333 74.2368 4.56667 75.4701 5.7C76.7034 6.83333 77.6534 8.13333 78.3201 9.6C79.0201 11.0667 79.3701 12.65 79.3701 14.35C79.3701 15.6833 79.2534 16.9833 79.0201 18.25C78.7868 19.4833 78.4368 20.7 77.9701 21.9C77.5368 23.1 77.0368 24.3167 76.4701 25.55C75.9034 26.75 75.2868 28 74.6201 29.3L70.0701 38H61.0201ZM65.5701 19.2C66.4701 19.2 67.2701 19 67.9701 18.6C68.6701 18.1667 69.2201 17.6 69.6201 16.9C70.0201 16.2 70.2201 15.4333 70.2201 14.6C70.2201 13.6667 70.0201 12.85 69.6201 12.15C69.2201 11.45 68.6701 10.9 67.9701 10.5C67.2701 10.1 66.4701 9.9 65.5701 9.9C64.6701 9.9 63.8868 10.1 63.2201 10.5C62.5534 10.8667 62.0201 11.4167 61.6201 12.15C61.2201 12.85 61.0201 13.6667 61.0201 14.6C61.0201 15.4 61.2201 16.15 61.6201 16.85C62.0534 17.55 62.6034 18.1167 63.2701 18.55C63.9701 18.9833 64.7368 19.2 65.5701 19.2ZM99.8042 38.35C97.6808 38.35 95.8492 37.9417 94.3092 37.125C92.7692 36.285 91.5792 35.1417 90.7392 33.695C89.8992 32.225 89.4792 30.5567 89.4792 28.69C89.4792 27.29 89.7125 25.995 90.1792 24.805C90.6458 23.615 91.2992 22.5883 92.1392 21.725C92.9792 20.8383 93.9708 20.1617 95.1142 19.695C96.2808 19.205 97.5525 18.96 98.9292 18.96C100.283 18.96 101.508 19.1933 102.604 19.66C103.724 20.1267 104.681 20.7917 105.474 21.655C106.291 22.5183 106.909 23.5333 107.329 24.7C107.773 25.8667 107.971 27.15 107.924 28.55L107.889 30.02H93.1892L92.3842 26.765H102.674L102.044 27.465V26.8C102.044 26.2867 101.904 25.8433 101.624 25.47C101.368 25.0733 101.018 24.77 100.574 24.56C100.131 24.35 99.6292 24.245 99.0692 24.245C98.2758 24.245 97.6108 24.4083 97.0742 24.735C96.5608 25.0383 96.1642 25.4817 95.8842 26.065C95.6042 26.6483 95.4642 27.3483 95.4642 28.165C95.4642 29.0983 95.6508 29.9033 96.0242 30.58C96.4208 31.2567 96.9925 31.7817 97.7392 32.155C98.5092 32.5283 99.4425 32.715 100.539 32.715C101.263 32.715 101.893 32.6217 102.429 32.435C102.989 32.2483 103.584 31.9217 104.214 31.455L107.224 35.69C106.408 36.3433 105.579 36.8683 104.739 37.265C103.923 37.6383 103.106 37.9067 102.289 38.07C101.473 38.2567 100.644 38.35 99.8042 38.35ZM133.262 38.5C130.295 38.5 127.678 37.9 125.412 36.7C123.145 35.5 121.112 33.3833 119.312 30.35L126.312 25.85C126.978 26.9833 127.695 27.8833 128.462 28.55C129.228 29.2167 130.028 29.7 130.862 30C131.728 30.2667 132.612 30.4 133.512 30.4C134.345 30.4 135.112 30.2333 135.812 29.9C136.512 29.5667 137.062 29.0833 137.462 28.45C137.895 27.8167 138.112 27.0667 138.112 26.2C138.112 25.3 137.912 24.55 137.512 23.95C137.112 23.3167 136.545 22.85 135.812 22.55C135.078 22.2167 134.195 22.05 133.162 22.05C132.695 22.05 132.178 22.1 131.612 22.2C131.078 22.3 130.512 22.45 129.912 22.65C129.345 22.85 128.762 23.1 128.162 23.4L126.112 18.05L133.562 10L136.462 11.1L122.012 10.7V2.6H144.212L145.962 6.15L134.312 18.4L132.012 15.55C132.278 15.4167 132.712 15.3 133.312 15.2C133.945 15.0667 134.595 15 135.262 15C136.828 15 138.328 15.3 139.762 15.9C141.195 16.4667 142.462 17.2667 143.562 18.3C144.662 19.3 145.528 20.4833 146.162 21.85C146.795 23.1833 147.112 24.65 147.112 26.25C147.112 28.5833 146.495 30.6833 145.262 32.55C144.028 34.3833 142.362 35.8333 140.262 36.9C138.195 37.9667 135.862 38.5 133.262 38.5ZM162.169 38.5C158.802 38.5 155.935 37.8 153.569 36.4C151.235 34.9667 149.452 32.9167 148.219 30.25C147.019 27.55 146.419 24.3 146.419 20.5C146.419 16.7 147.019 13.4667 148.219 10.8C149.452 8.1 151.235 6.05 153.569 4.65C155.935 3.21666 158.802 2.5 162.169 2.5C165.535 2.5 168.402 3.21666 170.769 4.65C173.135 6.05 174.919 8.1 176.119 10.8C177.352 13.4667 177.969 16.7 177.969 20.5C177.969 24.3 177.352 27.55 176.119 30.25C174.919 32.9167 173.135 34.9667 170.769 36.4C168.402 37.8 165.535 38.5 162.169 38.5ZM162.169 30.25C164.202 30.25 165.769 29.4167 166.869 27.75C168.002 26.05 168.569 23.6333 168.569 20.5C168.569 17.2333 168.002 14.7167 166.869 12.95C165.769 11.1833 164.202 10.3 162.169 10.3C160.135 10.3 158.552 11.1833 157.419 12.95C156.319 14.7167 155.769 17.2333 155.769 20.5C155.769 23.6333 156.319 26.05 157.419 27.75C158.552 29.4167 160.135 30.25 162.169 30.25Z" fill="#132D52"/>
<path d="M29.2 69V51.5H33L42.175 64L41.35 63.875C41.2667 63.325 41.2 62.8 41.15 62.3C41.1 61.8 41.05 61.3083 41 60.825C40.9667 60.3417 40.9333 59.85 40.9 59.35C40.8833 58.85 40.8667 58.3083 40.85 57.725C40.85 57.1417 40.85 56.5083 40.85 55.825V51.5H44.975V69H41.125L31.55 56.1L32.825 56.275C32.9083 57.075 32.975 57.7583 33.025 58.325C33.0917 58.875 33.1417 59.3667 33.175 59.8C33.225 60.2333 33.2583 60.625 33.275 60.975C33.2917 61.325 33.3 61.675 33.3 62.025C33.3167 62.3583 33.325 62.7333 33.325 63.15V69H29.2ZM57.591 69.25C56.2577 69.25 55.041 69.025 53.941 68.575C52.841 68.125 51.8827 67.4917 51.066 66.675C50.2493 65.8583 49.616 64.9 49.166 63.8C48.716 62.7 48.491 61.4917 48.491 60.175C48.491 58.8583 48.716 57.65 49.166 56.55C49.616 55.45 50.2493 54.4917 51.066 53.675C51.8827 52.8583 52.841 52.225 53.941 51.775C55.041 51.325 56.2493 51.1 57.566 51.1C58.8827 51.1 60.091 51.325 61.191 51.775C62.291 52.225 63.2493 52.8583 64.066 53.675C64.8827 54.4917 65.5077 55.45 65.941 56.55C66.391 57.65 66.616 58.8583 66.616 60.175C66.616 61.475 66.391 62.6833 65.941 63.8C65.5077 64.9 64.8827 65.8583 64.066 66.675C63.2493 67.4917 62.291 68.125 61.191 68.575C60.091 69.025 58.891 69.25 57.591 69.25ZM57.566 65.25C58.2493 65.25 58.8743 65.125 59.441 64.875C60.0243 64.625 60.5243 64.275 60.941 63.825C61.3743 63.3583 61.7077 62.8167 61.941 62.2C62.1743 61.5833 62.291 60.9083 62.291 60.175C62.291 59.4417 62.1743 58.7667 61.941 58.15C61.7077 57.5333 61.3743 57 60.941 56.55C60.5243 56.0833 60.0243 55.725 59.441 55.475C58.8743 55.225 58.2493 55.1 57.566 55.1C56.8827 55.1 56.2493 55.225 55.666 55.475C55.0993 55.725 54.5993 56.0833 54.166 56.55C53.7327 57 53.3993 57.5333 53.166 58.15C52.9493 58.7667 52.841 59.4417 52.841 60.175C52.841 60.9083 52.9493 61.5917 53.166 62.225C53.3993 62.8417 53.7327 63.375 54.166 63.825C54.5993 64.275 55.0993 64.625 55.666 64.875C56.2493 65.125 56.8827 65.25 57.566 65.25ZM74.2973 69L67.2973 51.5H71.7223L75.0973 60.425C75.2973 60.9417 75.4639 61.3917 75.5973 61.775C75.7473 62.1583 75.8723 62.5167 75.9723 62.85C76.0889 63.1833 76.1889 63.525 76.2723 63.875C76.3723 64.2083 76.4806 64.5917 76.5973 65.025H75.8223C75.9556 64.4583 76.0889 63.9583 76.2223 63.525C76.3556 63.075 76.5056 62.6167 76.6723 62.15C76.8389 61.6667 77.0473 61.0917 77.2973 60.425L80.5473 51.5H84.8973L77.8473 69H74.2973ZM87.4451 69V51.5H99.6451V55.125H91.5701V65.375H99.8951V69H87.4451ZM89.4451 61.825V58.375H98.5201V61.825H89.4451ZM103.808 69V51.5H107.608L113.983 61.875L111.258 61.85L117.708 51.5H121.358V69H117.233V63.55C117.233 62.05 117.267 60.7 117.333 59.5C117.417 58.3 117.55 57.1083 117.733 55.925L118.208 57.225L113.358 64.75H111.708L106.958 57.275L107.433 55.925C107.617 57.0417 107.742 58.1917 107.808 59.375C107.892 60.5417 107.933 61.9333 107.933 63.55V69H103.808ZM126.007 69V51.5H133.732C134.932 51.5 135.948 51.675 136.782 52.025C137.615 52.3583 138.24 52.85 138.657 53.5C139.09 54.1333 139.307 54.9 139.307 55.8C139.307 56.8 139.057 57.6417 138.557 58.325C138.073 59.0083 137.365 59.4667 136.432 59.7L136.382 59.225C137.165 59.3917 137.84 59.6833 138.407 60.1C138.99 60.5167 139.44 61.0333 139.757 61.65C140.073 62.25 140.232 62.9333 140.232 63.7C140.232 64.5833 140.082 65.3583 139.782 66.025C139.482 66.675 139.048 67.225 138.482 67.675C137.915 68.125 137.248 68.4583 136.482 68.675C135.732 68.8917 134.898 69 133.982 69H126.007ZM130.007 65.45H133.832C134.298 65.45 134.69 65.375 135.007 65.225C135.34 65.075 135.598 64.8583 135.782 64.575C135.965 64.275 136.057 63.9167 136.057 63.5C136.057 63.1167 135.957 62.7917 135.757 62.525C135.573 62.2583 135.307 62.0583 134.957 61.925C134.607 61.775 134.19 61.7 133.707 61.7H130.007V65.45ZM130.007 58.525H133.132C133.565 58.525 133.932 58.4583 134.232 58.325C134.548 58.175 134.782 57.975 134.932 57.725C135.098 57.4583 135.182 57.1417 135.182 56.775C135.182 56.2417 134.998 55.825 134.632 55.525C134.265 55.2083 133.715 55.05 132.982 55.05H130.007V58.525ZM143.786 69V51.5H151.661C152.778 51.5 153.786 51.7417 154.686 52.225C155.603 52.7083 156.319 53.375 156.836 54.225C157.353 55.0583 157.611 56.0083 157.611 57.075C157.611 58.175 157.353 59.1667 156.836 60.05C156.319 60.9167 155.611 61.6 154.711 62.1C153.811 62.6 152.794 62.85 151.661 62.85H147.836V69H143.786ZM153.486 69L149.036 61.1L153.386 60.475L158.336 69H153.486ZM147.836 59.6H151.286C151.719 59.6 152.094 59.5083 152.411 59.325C152.744 59.125 152.994 58.85 153.161 58.5C153.344 58.15 153.436 57.75 153.436 57.3C153.436 56.85 153.336 56.4583 153.136 56.125C152.936 55.775 152.644 55.5083 152.261 55.325C151.894 55.1417 151.444 55.05 150.911 55.05H147.836V59.6ZM169.321 69.25C167.987 69.25 166.771 69.025 165.671 68.575C164.571 68.125 163.612 67.4917 162.796 66.675C161.979 65.8583 161.346 64.9 160.896 63.8C160.446 62.7 160.221 61.4917 160.221 60.175C160.221 58.8583 160.446 57.65 160.896 56.55C161.346 55.45 161.979 54.4917 162.796 53.675C163.612 52.8583 164.571 52.225 165.671 51.775C166.771 51.325 167.979 51.1 169.296 51.1C170.612 51.1 171.821 51.325 172.921 51.775C174.021 52.225 174.979 52.8583 175.796 53.675C176.612 54.4917 177.237 55.45 177.671 56.55C178.121 57.65 178.346 58.8583 178.346 60.175C178.346 61.475 178.121 62.6833 177.671 63.8C177.237 64.9 176.612 65.8583 175.796 66.675C174.979 67.4917 174.021 68.125 172.921 68.575C171.821 69.025 170.621 69.25 169.321 69.25ZM169.296 65.25C169.979 65.25 170.604 65.125 171.171 64.875C171.754 64.625 172.254 64.275 172.671 63.825C173.104 63.3583 173.437 62.8167 173.671 62.2C173.904 61.5833 174.021 60.9083 174.021 60.175C174.021 59.4417 173.904 58.7667 173.671 58.15C173.437 57.5333 173.104 57 172.671 56.55C172.254 56.0833 171.754 55.725 171.171 55.475C170.604 55.225 169.979 55.1 169.296 55.1C168.612 55.1 167.979 55.225 167.396 55.475C166.829 55.725 166.329 56.0833 165.896 56.55C165.462 57 165.129 57.5333 164.896 58.15C164.679 58.7667 164.571 59.4417 164.571 60.175C164.571 60.9083 164.679 61.5917 164.896 62.225C165.129 62.8417 165.462 63.375 165.896 63.825C166.329 64.275 166.829 64.625 167.396 64.875C167.979 65.125 168.612 65.25 169.296 65.25Z" fill="#132D52"/>
<path d="M48.986 93L52.864 83.2H54.88L58.73 93H56.322L54.474 88.03C54.3993 87.834 54.3247 87.624 54.25 87.4C54.1753 87.176 54.1007 86.9473 54.026 86.714C53.9513 86.4713 53.8767 86.238 53.802 86.014C53.7367 85.7807 53.6807 85.566 53.634 85.37L54.054 85.356C53.998 85.5893 53.9327 85.818 53.858 86.042C53.7927 86.266 53.7227 86.49 53.648 86.714C53.5827 86.9287 53.508 87.148 53.424 87.372C53.34 87.5867 53.2607 87.8107 53.186 88.044L51.338 93H48.986ZM50.834 91.124L51.576 89.332H56.084L56.812 91.124H50.834ZM62.392 93.154C61.8413 93.154 61.37 93.0373 60.978 92.804C60.5953 92.5613 60.2967 92.216 60.082 91.768C59.8767 91.32 59.774 90.7833 59.774 90.158V85.566H62.028V89.85C62.028 90.1487 62.0747 90.4053 62.168 90.62C62.2613 90.8347 62.4013 91.0027 62.588 91.124C62.7747 91.236 62.9987 91.292 63.26 91.292C63.456 91.292 63.6333 91.2593 63.792 91.194C63.96 91.1287 64.1 91.04 64.212 90.928C64.3333 90.8067 64.4267 90.6713 64.492 90.522C64.5573 90.3633 64.59 90.1907 64.59 90.004V85.566H66.844V93H64.73L64.632 91.474L65.052 91.306C64.94 91.6607 64.7533 91.978 64.492 92.258C64.2307 92.5287 63.918 92.748 63.554 92.916C63.19 93.0747 62.8027 93.154 62.392 93.154ZM71.9344 93.154C71.2904 93.154 70.7164 92.9907 70.2124 92.664C69.7177 92.328 69.3257 91.8707 69.0364 91.292C68.7471 90.704 68.6024 90.0367 68.6024 89.29C68.6024 88.5433 68.7471 87.8807 69.0364 87.302C69.3257 86.714 69.7224 86.252 70.2264 85.916C70.7304 85.58 71.3091 85.412 71.9624 85.412C72.2984 85.412 72.6204 85.4633 72.9284 85.566C73.2364 85.6687 73.5164 85.8087 73.7684 85.986C74.0204 86.1633 74.2257 86.3687 74.3844 86.602C74.5431 86.826 74.6364 87.0593 74.6644 87.302L74.1324 87.428V82.64H76.3864V93H74.3004L74.1744 91.306L74.6224 91.376C74.5944 91.6093 74.5011 91.8333 74.3424 92.048C74.1931 92.2627 73.9971 92.454 73.7544 92.622C73.5117 92.7807 73.2317 92.9067 72.9144 93C72.6064 93.1027 72.2797 93.154 71.9344 93.154ZM72.5084 91.292C72.8537 91.292 73.1524 91.208 73.4044 91.04C73.6564 90.872 73.8477 90.6387 73.9784 90.34C74.1184 90.0413 74.1884 89.6913 74.1884 89.29C74.1884 88.8793 74.1184 88.5247 73.9784 88.226C73.8477 87.9273 73.6564 87.694 73.4044 87.526C73.1524 87.358 72.8537 87.274 72.5084 87.274C72.1631 87.274 71.8644 87.358 71.6124 87.526C71.3697 87.694 71.1784 87.9273 71.0384 88.226C70.8984 88.5247 70.8284 88.8793 70.8284 89.29C70.8284 89.6913 70.8984 90.0413 71.0384 90.34C71.1784 90.6387 71.3697 90.872 71.6124 91.04C71.8644 91.208 72.1631 91.292 72.5084 91.292ZM78.6866 93V85.566H80.9266V93H78.6866ZM79.8066 84.096C79.3866 84.096 79.0552 83.998 78.8126 83.802C78.5792 83.5967 78.4626 83.3073 78.4626 82.934C78.4626 82.598 78.5839 82.3227 78.8266 82.108C79.0692 81.8933 79.3959 81.786 79.8066 81.786C80.2266 81.786 80.5532 81.8887 80.7866 82.094C81.0199 82.29 81.1366 82.57 81.1366 82.934C81.1366 83.2793 81.0152 83.5593 80.7726 83.774C80.5392 83.9887 80.2172 84.096 79.8066 84.096ZM83.9273 93V83.69H86.1673V93H83.9273ZM82.6113 87.526V85.566H87.6093V87.526H82.6113ZM92.601 93.14C91.8264 93.14 91.1357 92.972 90.529 92.636C89.9317 92.3 89.4557 91.8427 89.101 91.264C88.7557 90.6853 88.583 90.0227 88.583 89.276C88.583 88.5293 88.7557 87.8667 89.101 87.288C89.4557 86.7093 89.9317 86.252 90.529 85.916C91.1357 85.58 91.8264 85.412 92.601 85.412C93.3757 85.412 94.0617 85.58 94.659 85.916C95.2657 86.252 95.7417 86.7093 96.087 87.288C96.4324 87.8667 96.605 88.5293 96.605 89.276C96.605 90.0227 96.4324 90.6853 96.087 91.264C95.7417 91.8427 95.2657 92.3 94.659 92.636C94.0617 92.972 93.3757 93.14 92.601 93.14ZM92.601 91.208C92.937 91.208 93.2357 91.124 93.497 90.956C93.7584 90.788 93.9637 90.5593 94.113 90.27C94.2624 89.9807 94.3324 89.6493 94.323 89.276C94.3324 88.9027 94.2624 88.5713 94.113 88.282C93.9637 87.9833 93.7584 87.75 93.497 87.582C93.2357 87.414 92.937 87.33 92.601 87.33C92.265 87.33 91.9617 87.414 91.691 87.582C91.4297 87.75 91.2244 87.9833 91.075 88.282C90.9257 88.5713 90.8557 88.9027 90.865 89.276C90.8557 89.6493 90.9257 89.9807 91.075 90.27C91.2244 90.5593 91.4297 90.788 91.691 90.956C91.9617 91.124 92.265 91.208 92.601 91.208ZM91.495 84.754L90.837 83.732L93.343 81.744L94.365 83.214L91.495 84.754ZM98.3498 93V85.566H100.478L100.576 87.988L100.156 87.526C100.268 87.1247 100.45 86.7653 100.702 86.448C100.963 86.1307 101.266 85.8787 101.612 85.692C101.957 85.5053 102.326 85.412 102.718 85.412C102.886 85.412 103.04 85.426 103.18 85.454C103.329 85.482 103.464 85.5147 103.586 85.552L102.97 88.03C102.867 87.9647 102.727 87.9133 102.55 87.876C102.382 87.8293 102.204 87.806 102.018 87.806C101.812 87.806 101.621 87.8433 101.444 87.918C101.266 87.9833 101.117 88.0813 100.996 88.212C100.874 88.3427 100.776 88.4967 100.702 88.674C100.636 88.8513 100.604 89.052 100.604 89.276V93H98.3498ZM105.127 93V85.566H107.367V93H105.127ZM106.247 84.096C105.827 84.096 105.496 83.998 105.253 83.802C105.02 83.5967 104.903 83.3073 104.903 82.934C104.903 82.598 105.024 82.3227 105.267 82.108C105.51 81.8933 105.836 81.786 106.247 81.786C106.667 81.786 106.994 81.8887 107.227 82.094C107.46 82.29 107.577 82.57 107.577 82.934C107.577 83.2793 107.456 83.5593 107.213 83.774C106.98 83.9887 106.658 84.096 106.247 84.096ZM113.252 93.14C112.477 93.14 111.786 92.972 111.18 92.636C110.582 92.3 110.106 91.8427 109.752 91.264C109.406 90.6853 109.234 90.0227 109.234 89.276C109.234 88.5293 109.406 87.8667 109.752 87.288C110.106 86.7093 110.582 86.252 111.18 85.916C111.786 85.58 112.477 85.412 113.252 85.412C114.026 85.412 114.712 85.58 115.31 85.916C115.916 86.252 116.392 86.7093 116.738 87.288C117.083 87.8667 117.256 88.5293 117.256 89.276C117.256 90.0227 117.083 90.6853 116.738 91.264C116.392 91.8427 115.916 92.3 115.31 92.636C114.712 92.972 114.026 93.14 113.252 93.14ZM113.252 91.208C113.588 91.208 113.886 91.124 114.148 90.956C114.409 90.788 114.614 90.5593 114.764 90.27C114.913 89.9807 114.983 89.6493 114.974 89.276C114.983 88.9027 114.913 88.5713 114.764 88.282C114.614 87.9833 114.409 87.75 114.148 87.582C113.886 87.414 113.588 87.33 113.252 87.33C112.916 87.33 112.612 87.414 112.342 87.582C112.08 87.75 111.875 87.9833 111.726 88.282C111.576 88.5713 111.506 88.9027 111.516 89.276C111.506 89.6493 111.576 89.9807 111.726 90.27C111.875 90.5593 112.08 90.788 112.342 90.956C112.612 91.124 112.916 91.208 113.252 91.208ZM126.579 93.154C125.935 93.154 125.361 92.9907 124.857 92.664C124.362 92.328 123.97 91.8707 123.681 91.292C123.391 90.704 123.247 90.0367 123.247 89.29C123.247 88.5433 123.391 87.8807 123.681 87.302C123.97 86.714 124.367 86.252 124.871 85.916C125.375 85.58 125.953 85.412 126.607 85.412C126.943 85.412 127.265 85.4633 127.573 85.566C127.881 85.6687 128.161 85.8087 128.413 85.986C128.665 86.1633 128.87 86.3687 129.029 86.602C129.187 86.826 129.281 87.0593 129.309 87.302L128.777 87.428V82.64H131.031V93H128.945L128.819 91.306L129.267 91.376C129.239 91.6093 129.145 91.8333 128.987 92.048C128.837 92.2627 128.641 92.454 128.399 92.622C128.156 92.7807 127.876 92.9067 127.559 93C127.251 93.1027 126.924 93.154 126.579 93.154ZM127.153 91.292C127.498 91.292 127.797 91.208 128.049 91.04C128.301 90.872 128.492 90.6387 128.623 90.34C128.763 90.0413 128.833 89.6913 128.833 89.29C128.833 88.8793 128.763 88.5247 128.623 88.226C128.492 87.9273 128.301 87.694 128.049 87.526C127.797 87.358 127.498 87.274 127.153 87.274C126.807 87.274 126.509 87.358 126.257 87.526C126.014 87.694 125.823 87.9273 125.683 88.226C125.543 88.5247 125.473 88.8793 125.473 89.29C125.473 89.6913 125.543 90.0413 125.683 90.34C125.823 90.6387 126.014 90.872 126.257 91.04C126.509 91.208 126.807 91.292 127.153 91.292ZM136.705 93.14C135.93 93.14 135.24 92.972 134.633 92.636C134.036 92.3 133.56 91.8427 133.205 91.264C132.86 90.6853 132.687 90.0227 132.687 89.276C132.687 88.5293 132.86 87.8667 133.205 87.288C133.56 86.7093 134.036 86.252 134.633 85.916C135.24 85.58 135.93 85.412 136.705 85.412C137.48 85.412 138.166 85.58 138.763 85.916C139.37 86.252 139.846 86.7093 140.191 87.288C140.536 87.8667 140.709 88.5293 140.709 89.276C140.709 90.0227 140.536 90.6853 140.191 91.264C139.846 91.8427 139.37 92.3 138.763 92.636C138.166 92.972 137.48 93.14 136.705 93.14ZM136.705 91.208C137.041 91.208 137.34 91.124 137.601 90.956C137.862 90.788 138.068 90.5593 138.217 90.27C138.366 89.9807 138.436 89.6493 138.427 89.276C138.436 88.9027 138.366 88.5713 138.217 88.282C138.068 87.9833 137.862 87.75 137.601 87.582C137.34 87.414 137.041 87.33 136.705 87.33C136.369 87.33 136.066 87.414 135.795 87.582C135.534 87.75 135.328 87.9833 135.179 88.282C135.03 88.5713 134.96 88.9027 134.969 89.276C134.96 89.6493 135.03 89.9807 135.179 90.27C135.328 90.5593 135.534 90.788 135.795 90.956C136.066 91.124 136.369 91.208 136.705 91.208ZM151.908 93.14C151.171 93.14 150.489 93.0187 149.864 92.776C149.248 92.524 148.711 92.174 148.254 91.726C147.797 91.2687 147.442 90.732 147.19 90.116C146.947 89.4907 146.826 88.8047 146.826 88.058C146.826 87.33 146.957 86.658 147.218 86.042C147.479 85.426 147.839 84.894 148.296 84.446C148.763 83.9887 149.309 83.634 149.934 83.382C150.569 83.13 151.259 83.004 152.006 83.004C152.473 83.004 152.93 83.0647 153.378 83.186C153.826 83.3073 154.241 83.4893 154.624 83.732C155.016 83.9653 155.352 84.2453 155.632 84.572L154.176 86.238C153.98 86.0327 153.77 85.8553 153.546 85.706C153.331 85.5473 153.093 85.426 152.832 85.342C152.571 85.258 152.291 85.216 151.992 85.216C151.619 85.216 151.264 85.286 150.928 85.426C150.601 85.5567 150.312 85.748 150.06 86C149.817 86.2427 149.626 86.5413 149.486 86.896C149.346 87.2507 149.276 87.6473 149.276 88.086C149.276 88.5153 149.346 88.9073 149.486 89.262C149.626 89.6073 149.822 89.906 150.074 90.158C150.326 90.41 150.629 90.6013 150.984 90.732C151.348 90.8627 151.749 90.928 152.188 90.928C152.487 90.928 152.771 90.886 153.042 90.802C153.313 90.718 153.56 90.606 153.784 90.466C154.017 90.3167 154.223 90.1487 154.4 89.962L155.548 91.782C155.315 92.0433 155.002 92.2767 154.61 92.482C154.227 92.6873 153.798 92.8507 153.322 92.972C152.855 93.084 152.384 93.14 151.908 93.14ZM161.909 93.14C161.171 93.14 160.49 93.0187 159.865 92.776C159.249 92.524 158.712 92.174 158.255 91.726C157.797 91.2687 157.443 90.732 157.191 90.116C156.948 89.4907 156.827 88.8047 156.827 88.058C156.827 87.33 156.957 86.658 157.219 86.042C157.48 85.426 157.839 84.894 158.297 84.446C158.763 83.9887 159.309 83.634 159.935 83.382C160.569 83.13 161.26 83.004 162.007 83.004C162.473 83.004 162.931 83.0647 163.379 83.186C163.827 83.3073 164.242 83.4893 164.625 83.732C165.017 83.9653 165.353 84.2453 165.633 84.572L164.177 86.238C163.981 86.0327 163.771 85.8553 163.547 85.706C163.332 85.5473 163.094 85.426 162.833 85.342C162.571 85.258 162.291 85.216 161.993 85.216C161.619 85.216 161.265 85.286 160.929 85.426C160.602 85.5567 160.313 85.748 160.061 86C159.818 86.2427 159.627 86.5413 159.487 86.896C159.347 87.2507 159.277 87.6473 159.277 88.086C159.277 88.5153 159.347 88.9073 159.487 89.262C159.627 89.6073 159.823 89.906 160.075 90.158C160.327 90.41 160.63 90.6013 160.985 90.732C161.349 90.8627 161.75 90.928 162.189 90.928C162.487 90.928 162.772 90.886 163.043 90.802C163.313 90.718 163.561 90.606 163.785 90.466C164.018 90.3167 164.223 90.1487 164.401 89.962L165.549 91.782C165.315 92.0433 165.003 92.2767 164.611 92.482C164.228 92.6873 163.799 92.8507 163.323 92.972C162.856 93.084 162.385 93.14 161.909 93.14ZM167.457 93V83.2H169.585L174.723 90.2L174.261 90.13C174.215 89.822 174.177 89.528 174.149 89.248C174.121 88.968 174.093 88.6927 174.065 88.422C174.047 88.1513 174.028 87.876 174.009 87.596C174 87.316 173.991 87.0127 173.981 86.686C173.981 86.3593 173.981 86.0047 173.981 85.622V83.2H176.291V93H174.135L168.773 85.776L169.487 85.874C169.534 86.322 169.571 86.7047 169.599 87.022C169.637 87.33 169.665 87.6053 169.683 87.848C169.711 88.0907 169.73 88.31 169.739 88.506C169.749 88.702 169.753 88.898 169.753 89.094C169.763 89.2807 169.767 89.4907 169.767 89.724V93H167.457Z" fill="#132D52"/>
<path d="M0 1.55906L5.5 0L11 1.55906V97.4409L5.5 99L0 97.4409V1.55906Z" fill="url(#paint0_linear_2_13)"/>
<defs>
<linearGradient id="paint0_linear_2_13" x1="5.5" y1="-2.33858" x2="5.5" y2="97.4409" gradientUnits="userSpaceOnUse">
<stop stop-color="#B4B9BD"/>
<stop offset="1" stop-color="#103456"/>
</linearGradient>
</defs>
</svg>
